<?xml version="1.0" encoding="UTF-8"?>
<svg id="Calque_1" xmlns="http://www.w3.org/2000/svg" version="1.1" viewBox="0 0 280 100">
  <!-- Generator: Adobe Illustrator 29.3.1, SVG Export Plug-In . SVG Version: 2.1.0 Build 151)  -->
  <defs>
    <style>
      .st0 {
        fill: #1d1d1b;
      }

      .st1 {
        fill: #fff;
      }
    </style>
  </defs>
  <rect x="-.5" y="-2" width="280.5" height="102.67"/>
  <g>
    <path class="st1" d="M72.89,46.49"/>
    <path class="st1" d="M120.82,58.15l-8-2.61c-4.64-1.51-5.8-3.38-5.27-5.18.77-2.59,4.94-4.21,9.72-3.74,3.74.37,6.4,1.92,7.07,3.8,0,0,0,0,0,0l7.95-1.35c-1.6-3.44-6.69-6.18-13.7-6.88-9.48-.95-17.85,2.35-19.33,7.34-1.14,3.83,1.73,7.68,9.22,10.1l7.87,2.5c5.23,1.71,6.98,4.12,6.25,6.57-1.03,3.46-6.53,5.67-13.06,5.02-7.41-.74-10-5.57-10.06-5.69-.02-.04-.14-.24-.19-.4l-18.59-56.22-22.64,28.48h-.16l-22.64-28.48-12.29,37.2h7.92l7.36-22.86h.16l19.48,24.46,19.48-24.46h.16l13.58,42.68h0s0,.02.01.04c1.21,4.03,7.65,8.75,17.09,9.69,11.23,1.12,20.92-2.76,22.66-8.62,1.28-4.29-1.99-8.76-10.07-11.37Z"/>
    <ellipse class="st1" cx="42.75" cy="46.33" rx="3.5" ry="2.05"/>
    <ellipse class="st1" cx="72.11" cy="46.32" rx="3.5" ry="2.05"/>
    <g>
      <path class="st0" d="M42.22,45.56c-.09.15-.22.4-.24.74,0,.06,0,.32.15.66.09.19.26.46.6.76l.03-2.78c-.27.24-.4.4-.54.62Z"/>
      <path class="st0" d="M43.35,45.57c-.11-.16-.29-.38-.58-.62l-.03,2.77c.37-.3.63-.57.73-.76.17-.34.16-.6.16-.66-.01-.34-.17-.59-.27-.74Z"/>
    </g>
    <g>
      <path d="M71.61,45.61c-.1.15-.23.4-.24.74,0,.06,0,.32.15.66.09.19.27.46.61.76l.03-2.78c-.28.24-.41.4-.55.62Z"/>
      <path d="M72.76,45.62c-.11-.16-.29-.38-.6-.62l-.03,2.77c.38-.3.65-.57.74-.76.17-.34.17-.6.16-.66-.02-.34-.18-.59-.28-.74Z"/>
    </g>
    <path class="st1" d="M95.82,28.1c0-4.63,6.27-8.36,14.43-8.36s14.43,3.73,14.43,8.36-6.27,8.36-14.43,8.36-14.43-3.73-14.43-8.36ZM118.98,28.1c0-3.03-3.79-5.33-8.74-5.33s-8.74,2.3-8.74,5.33,3.79,5.33,8.74,5.33,8.74-2.3,8.74-5.33Z"/>
    <path class="st1" d="M146.45,20.04v3.03c-.57-.03-1.15-.07-1.78-.07-2.3,0-4.2.5-5.52,1.27-1.32.77-2.13,1.83-2.13,3.7v8.09h-5.46v-15.92h5.17v2.03c.23-.2.52-.37.81-.53,1.78-1.03,4.31-1.67,7.19-1.67.57,0,1.15.03,1.72.07Z"/>
    <path class="st1" d="M177.09,20.14v15.92h-5.29v-1.63c-2.3,1.27-5.35,2.03-8.79,2.03-7.82,0-13.85-3.73-13.85-8.36s6.04-8.36,13.85-8.36c3.45,0,6.5.77,8.79,2.03v-1.63h5.29ZM172.32,28.1c0-3-3.79-5.3-8.74-5.3s-8.74,2.3-8.74,5.3,3.79,5.3,8.74,5.3,8.74-2.3,8.74-5.3Z"/>
    <path class="st1" d="M186.17,20.14h5.17v1.27c1.84-1.03,4.37-1.67,7.3-1.67s5.52.67,7.42,1.77c1.95,1.13,3.16,2.73,3.16,5.16v9.39h-5.46v-9.13c0-1.7-.69-2.56-1.72-3.16-1.09-.63-2.59-1-4.31-1s-3.22.37-4.31,1c-1.09.6-1.78,1.47-1.78,3.16v9.13h-5.46v-15.92Z"/>
    <path class="st1" d="M243.59,20.14v15.92h-5.29v-1.63c-2.3,1.27-5.35,2.03-8.79,2.03-7.82,0-13.85-3.73-13.85-8.36s6.04-8.36,13.85-8.36c3.45,0,6.5.77,8.79,2.03v-1.63h5.29ZM238.81,28.1c0-3-3.79-5.3-8.74-5.3s-8.74,2.3-8.74,5.3,3.79,5.3,8.74,5.3,8.74-2.3,8.74-5.3Z"/>
    <path class="st1" d="M140.58,64.72h-5v-2.83h5v-6.1h5.46v6.1h5.81v2.83h-5.81v13.09h-5.46v-13.09Z"/>
    <path class="st1" d="M158.4,76.28c-1.78-1.07-2.87-2.46-2.87-4.73v-9.66h5.46v9.53c0,1.47.57,2.23,1.49,2.76,1.09.63,2.59,1,4.31,1s3.33-.4,4.37-1c.92-.53,1.49-1.27,1.49-2.76v-9.53h5.46v9.66c0,2.26-1.09,3.66-2.93,4.73-2.07,1.2-5,1.93-8.39,1.93s-6.38-.73-8.39-1.93Z"/>
    <path class="st1" d="M210.93,51.9v25.91h-5.29v-1.63c-2.3,1.27-5.35,2.03-8.79,2.03-7.82,0-13.85-3.73-13.85-8.36s6.04-8.36,13.85-8.36c3.33,0,6.32.73,8.62,1.97v-11.56h5.46ZM206.16,69.85c0-3-3.79-5.3-8.74-5.3s-8.74,2.3-8.74,5.3,3.79,5.3,8.74,5.3,8.74-2.3,8.74-5.3Z"/>
    <path class="st1" d="M217.37,57.19c0-1.2,1.78-2.2,3.85-2.2s3.79,1,3.79,2.2-1.72,2.23-3.79,2.23-3.85-1.03-3.85-2.23ZM218.46,61.89h5.46v15.92h-5.46v-15.92Z"/>
    <path class="st1" d="M229.26,69.85c0-4.63,6.27-8.36,14.43-8.36s14.43,3.73,14.43,8.36-6.27,8.36-14.43,8.36-14.43-3.73-14.43-8.36ZM252.43,69.85c0-3.03-3.79-5.33-8.74-5.33s-8.74,2.3-8.74,5.33,3.79,5.33,8.74,5.33,8.74-2.3,8.74-5.33Z"/>
    <path class="st1" d="M101.14,83.27c.43.18.75.42.97.73.21.3.32.64.32,1s-.11.72-.32,1.02c-.21.3-.54.54-.97.72-.43.18-.96.27-1.59.27h-2.51c-.09,0-.16-.02-.21-.05s-.08-.07-.08-.12v-3.65s.03-.09.08-.12c.06-.03.13-.05.21-.05h2.51c.63,0,1.16.09,1.59.27ZM101.22,86.2c.39-.31.58-.71.58-1.2,0-.31-.08-.59-.25-.84-.16-.25-.42-.45-.77-.6-.35-.15-.79-.23-1.33-.23h-2.09v3.32h2.09c.79,0,1.38-.15,1.76-.46Z"/>
    <path class="st1" d="M115.24,86.71c.06.03.08.07.08.12,0,.05-.03.09-.08.12-.06.03-.13.05-.21.05h-3.62c-.09,0-.16-.02-.21-.05s-.08-.07-.08-.12v-3.65s.03-.09.08-.12c.06-.03.13-.05.21-.05h3.62c.09,0,.16.02.21.05.06.03.08.07.08.12s-.03.09-.08.12c-.06.03-.13.05-.21.05h-3.29v1.43h2.85c.09,0,.16.02.21.05.06.03.08.07.08.12s-.03.09-.08.12c-.06.03-.13.05-.21.05h-2.85v1.55h3.29c.09,0,.16.02.21.05Z"/>
    <path class="st1" d="M124.61,86.91c-.36-.09-.72-.23-1.06-.43-.08-.04-.12-.08-.12-.14,0-.05.03-.09.09-.13s.13-.06.21-.06.15.02.22.06c.51.33,1.15.49,1.92.49.47,0,.87-.06,1.18-.19.31-.13.47-.3.47-.51,0-.16-.08-.3-.23-.41-.15-.11-.36-.2-.61-.27-.25-.07-.57-.14-.96-.21-.42-.07-.77-.15-1.06-.24-.29-.09-.52-.2-.69-.35s-.27-.33-.27-.56c0-.2.09-.38.28-.54.19-.16.45-.28.79-.37.34-.09.73-.13,1.17-.13.4,0,.78.04,1.13.12.35.08.63.19.84.33.1.07.15.12.15.17,0,.04-.03.08-.1.12-.07.04-.14.05-.22.05-.07,0-.12-.01-.17-.04-.18-.12-.41-.22-.71-.3-.3-.08-.6-.11-.93-.11-.48,0-.87.06-1.17.19-.3.12-.45.29-.45.51s.14.39.43.51c.29.12.7.23,1.24.33.47.08.85.16,1.14.25.3.08.54.2.72.36.19.15.28.36.28.61,0,.19-.1.37-.29.53-.19.16-.46.28-.81.37s-.74.14-1.18.14c-.47,0-.89-.05-1.26-.14Z"/>
    <path class="st1" d="M137.36,86.94c-.06.03-.13.05-.22.05-.09,0-.17-.02-.22-.05s-.08-.08-.08-.13v-3.64c0-.05.03-.1.09-.13.06-.03.13-.05.23-.05.09,0,.16.02.22.05.06.03.09.08.09.13v3.64s-.04.09-.1.13Z"/>
    <path class="st1" d="M151.83,85.02c.06.03.08.07.08.12v1.38c0,.07-.05.12-.15.15-.3.12-.62.21-.98.27-.36.06-.73.1-1.1.1-.67,0-1.27-.09-1.81-.27-.54-.18-.96-.42-1.27-.74-.31-.31-.46-.66-.46-1.05s.15-.74.46-1.05c.31-.31.73-.56,1.27-.74.54-.18,1.14-.27,1.81-.27.35,0,.68.02,1.01.07.32.05.62.12.87.21.09.03.14.08.14.14,0,.05-.03.09-.08.13-.06.03-.12.05-.19.05-.07,0-.12,0-.18-.03-.49-.16-1.01-.23-1.57-.23s-1.06.07-1.5.22c-.44.15-.79.35-1.04.61s-.37.55-.37.88.13.62.37.88c.25.26.6.47,1.04.61.44.15.94.22,1.5.22.28,0,.57-.02.85-.07.29-.05.54-.11.76-.19v-1.13h-1.56c-.08,0-.16-.02-.22-.05-.06-.03-.09-.07-.09-.12s.03-.09.09-.12c.06-.03.13-.05.22-.05h1.88c.09,0,.16.02.21.05Z"/>
    <path class="st1" d="M165.97,83.04s.07.07.07.11v3.65c0,.06-.03.1-.09.13-.06.03-.13.05-.22.05-.05,0-.09,0-.13-.02-.04-.01-.08-.02-.1-.04l-4.23-3.3v3.2s-.03.08-.08.11c-.06.03-.12.05-.19.05-.08,0-.14-.02-.2-.05-.05-.03-.08-.07-.08-.11v-3.67c0-.05.03-.1.08-.13.06-.03.12-.05.2-.05.11,0,.18.02.24.06l4.25,3.32v-3.22s.03-.08.08-.11c.05-.03.12-.05.2-.05.09,0,.15.02.2.05Z"/>
    <path class="st1" d="M190.42,85.02c.06.03.08.07.08.12v1.38c0,.07-.05.12-.15.15-.3.12-.62.21-.98.27-.36.06-.73.1-1.1.1-.67,0-1.27-.09-1.81-.27-.54-.18-.96-.42-1.27-.74-.31-.31-.46-.66-.46-1.05s.15-.74.46-1.05c.31-.31.73-.56,1.27-.74.54-.18,1.14-.27,1.81-.27.35,0,.68.02,1.01.07.32.05.62.12.87.21.09.03.14.08.14.14,0,.05-.03.09-.08.13-.06.03-.12.05-.19.05-.07,0-.12,0-.18-.03-.49-.16-1.01-.23-1.57-.23s-1.06.07-1.5.22c-.44.15-.79.35-1.04.61s-.37.55-.37.88.13.62.37.88c.25.26.6.47,1.04.61.44.15.94.22,1.5.22.28,0,.57-.02.85-.07.29-.05.54-.11.76-.19v-1.13h-1.56c-.08,0-.16-.02-.22-.05-.06-.03-.09-.07-.09-.12s.03-.09.09-.12c.06-.03.13-.05.22-.05h1.88c.09,0,.16.02.21.05Z"/>
    <path class="st1" d="M203.33,86.7c.06.03.08.07.08.12s-.03.09-.08.12c-.06.03-.13.05-.21.05h-3.52c-.09,0-.16-.02-.21-.05s-.08-.07-.08-.12v-3.65s.03-.09.09-.12c.06-.03.13-.05.23-.05.09,0,.16.02.22.05.06.03.09.07.09.12v3.49h3.19c.09,0,.16.02.21.05Z"/>
    <path class="st1" d="M217.47,86.05c-.28.31-.67.56-1.17.73-.5.18-1.07.27-1.7.27s-1.21-.09-1.7-.27c-.5-.18-.89-.42-1.17-.73-.28-.31-.42-.66-.42-1.06s.14-.75.42-1.06c.28-.31.67-.56,1.17-.73.5-.18,1.07-.26,1.7-.26s1.21.09,1.7.26.89.42,1.17.73c.28.31.42.67.42,1.06s-.14.74-.42,1.06ZM216.92,84.11c-.23-.26-.54-.46-.95-.61s-.87-.22-1.38-.22-.98.07-1.38.22-.72.35-.95.61c-.23.26-.34.56-.34.89s.11.63.34.89c.23.26.54.46.95.61.4.14.87.22,1.38.22s.98-.07,1.38-.22c.4-.14.72-.35.95-.61.23-.26.34-.56.34-.89s-.11-.63-.34-.89Z"/>
    <path class="st1" d="M231.23,85.21c.25.17.37.39.37.67,0,.37-.2.65-.6.84-.4.18-.89.28-1.48.28h-2.65c-.09,0-.16-.02-.21-.05s-.08-.07-.08-.12v-3.65s.03-.09.08-.12c.06-.03.13-.05.21-.05h2.61c.55,0,.98.09,1.3.26s.47.41.47.72c0,.2-.09.38-.26.54s-.41.28-.73.35c.39.06.72.17.97.34ZM230.3,83.51c-.21-.12-.51-.18-.89-.18h-2.2v1.43h2.2c.35,0,.65-.07.87-.2.23-.13.34-.31.34-.55,0-.21-.11-.37-.32-.49ZM230.57,86.46c.27-.13.41-.32.41-.58s-.14-.46-.42-.59c-.28-.13-.64-.19-1.08-.19h-2.27v1.55h2.29c.44,0,.8-.06,1.07-.19Z"/>
    <path class="st1" d="M245.45,86.83s-.03.09-.09.12c-.06.03-.13.05-.21.05-.07,0-.12-.01-.17-.03-.05-.02-.09-.05-.11-.08l-.74-1.04h-3.2l-.73,1.04c-.05.08-.14.11-.27.11-.09,0-.16-.01-.21-.04-.05-.03-.07-.06-.08-.11v-.02s0-.04.01-.05l2.6-3.69c.05-.08.15-.11.3-.11.07,0,.12.01.17.03.05.02.09.05.11.08l2.59,3.67s.02.05.02.07ZM241.15,85.5h2.74l-1.38-1.95-1.36,1.95Z"/>
    <path class="st1" d="M257.98,86.7c.06.03.08.07.08.12s-.03.09-.08.12c-.06.03-.13.05-.21.05h-3.52c-.09,0-.16-.02-.21-.05s-.08-.07-.08-.12v-3.65s.03-.09.09-.12c.06-.03.13-.05.23-.05.09,0,.16.02.22.05.06.03.09.07.09.12v3.49h3.19c.09,0,.16.02.21.05Z"/>
  </g>
</svg>