<?xml version="1.0" encoding="UTF-8"?>
<svg id="Capa_1" xmlns="http://www.w3.org/2000/svg" version="1.1" viewBox="0 0 75.12 76.54">
  <!-- Generator: Adobe Illustrator 29.3.1, SVG Export Plug-In . SVG Version: 2.1.0 Build 151)  -->
  <defs>
    <style>
      .st0 {
        fill: #1d1d1b;
      }

      .st1 {
        fill: #fff;
      }
    </style>
  </defs>
  <rect class="st0" width="75.12" height="76.54"/>
  <path class="st1" d="M34.67,39.96"/>
  <path class="st1" d="M63.87,52.21l-4.88-2.73c-2.83-1.58-3.54-3.55-3.21-5.44.47-2.71,3.01-4.42,5.93-3.92,2.28.39,3.9,2.02,4.31,3.98,0,0,0,0,0,0l4.84-1.41c-.98-3.61-4.08-6.49-8.35-7.22-5.78-.99-10.87,2.47-11.78,7.7-.69,4.02,1.06,8.06,5.62,10.59l4.8,2.62c3.19,1.79,4.25,4.32,3.81,6.89-.63,3.63-3.98,5.95-7.96,5.27-4.52-.78-6.09-5.84-6.13-5.97-.01-.05-.09-.25-.12-.42L39.43,3.15l-13.79,29.88h-.1L11.74,3.15l-7.49,39.03h4.83l4.48-23.99h.1l11.87,25.66,11.87-25.66h.1l8.27,44.78h0s0,.02,0,.04c.73,4.23,4.66,9.18,10.41,10.17,6.85,1.18,12.75-2.9,13.81-9.05.78-4.5-1.21-9.19-6.14-11.93Z"/>
  <ellipse class="st1" cx="16.32" cy="39.8" rx="2.13" ry="2.15"/>
  <ellipse class="st1" cx="34.19" cy="39.79" rx="2.13" ry="2.15"/>
  <g>
    <path class="st0" d="M16,38.99c-.06.15-.14.42-.14.78,0,.06,0,.34.09.69.05.2.16.48.36.8l.02-2.92c-.16.25-.24.42-.33.65Z"/>
    <path class="st0" d="M16.68,39c-.07-.17-.17-.4-.36-.65l-.02,2.91c.23-.31.38-.6.44-.79.1-.35.1-.63.1-.69,0-.35-.11-.62-.17-.77Z"/>
  </g>
  <g>
    <path d="M33.89,39.05c-.06.15-.14.42-.15.78,0,.06,0,.34.09.69.05.2.16.48.37.8l.02-2.92c-.17.25-.25.42-.34.65Z"/>
    <path d="M34.59,39.05c-.07-.17-.18-.4-.36-.65l-.02,2.91c.23-.31.39-.6.45-.79.11-.35.1-.63.1-.69,0-.35-.11-.62-.17-.77Z"/>
  </g>
</svg>